<svg width="31" height="23" viewBox="0 0 31 23" fill="none" xmlns="http://www.w3.org/2000/svg">
<path d="M28.9998 9.98627C29.691 10.8904 29.691 12.1111 28.9998 13.0138C26.8225 15.8561 21.5987 21.7084 15.5 21.7084C9.40125 21.7084 4.1775 15.8561 2.0002 13.0138C1.66389 12.5808 1.48132 12.0482 1.48132 11.5C1.48132 10.9518 1.66389 10.4192 2.0002 9.98627C4.1775 7.14398 9.40125 1.29169 15.5 1.29169C21.5987 1.29169 26.8225 7.14398 28.9998 9.98627V9.98627Z" stroke="white" stroke-width="2" stroke-linecap="round" stroke-linejoin="round"/>
<path d="M15.5 15.875C17.9162 15.875 19.875 13.9162 19.875 11.5C19.875 9.08375 17.9162 7.125 15.5 7.125C13.0838 7.125 11.125 9.08375 11.125 11.5C11.125 13.9162 13.0838 15.875 15.5 15.875Z" stroke="white" stroke-width="2" stroke-linecap="round" stroke-linejoin="round"/>
</svg>
